<svg xmlns="http://www.w3.org/2000/svg" xmlns:xlink="http://www.w3.org/1999/xlink" width="500" zoomAndPan="magnify" viewBox="0 0 375 374.999991" height="500" preserveAspectRatio="xMidYMid meet" version="1.0"><path fill="#5dc4ff" d="M 223.453125 139.203125 C 124.265625 98.53125 60.828125 243.324219 155.710938 303.132812 C 94.917969 277.203125 76.320312 186.136719 137.003906 142.585938 C 58.882812 144.578125 33.953125 240.832031 58.132812 301.921875 C -6.285156 180.144531 120.101562 62.394531 250.214844 145.429688 C 225.507812 110.925781 185.085938 88.433594 139.40625 88.433594 C 82.570312 88.433594 33.867188 123.25 13.457031 172.71875 C 14.039062 165.902344 15.023438 159.082031 16.433594 152.261719 C 18.070312 144.339844 20.285156 136.4375 23.085938 128.601562 C 55.566406 37.84375 155.476562 -9.402344 246.238281 23.082031 C 337 55.5625 384.246094 155.46875 351.761719 246.234375 C 347.386719 258.460938 341.785156 269.898438 335.152344 280.453125 C 232.03125 314.917969 169.738281 266.160156 169.738281 266.160156 C 211.082031 325.742188 304.101562 301.597656 324.296875 295.808594 C 269.582031 322.273438 176.042969 315.484375 151.15625 250.800781 C 130.050781 195.914062 166.804688 124.234375 223.460938 139.199219 Z M 362.140625 249.949219 C 396.675781 153.453125 346.445312 47.234375 249.945312 12.699219 C 153.445312 -21.835938 47.226562 28.394531 12.691406 124.890625 C -21.839844 221.390625 28.390625 327.609375 124.886719 362.144531 C 221.386719 396.679688 327.605469 346.449219 362.140625 249.949219 Z M 362.140625 249.949219 " fill-opacity="1" fill-rule="evenodd"/></svg>